<svg xmlns:inkscape="http://www.inkscape.org/namespaces/inkscape" xmlns:sodipodi="http://sodipodi.sourceforge.net/DTD/sodipodi-0.dtd" xmlns="http://www.w3.org/2000/svg" xmlns:svg="http://www.w3.org/2000/svg" width="200" height="80" viewBox="0 0 353.99172 175.12109" version="1.1" id="svg1" inkscape:version="1.3.2 (091e20e, 2023-11-25, custom)" xml:space="preserve" webcrx=""><sodipodi:namedview id="namedview1" pagecolor="#e5e5e5" bordercolor="#ffffff" borderopacity="1" inkscape:showpageshadow="0" inkscape:pageopacity="0" inkscape:pagecheckerboard="false" inkscape:deskcolor="#e5e5e5" inkscape:document-units="px" showborder="false" borderlayer="true"/><defs id="defs1"/><g inkscape:label="Layer 1" inkscape:groupmode="layer" id="layer1" transform="translate(88.309678,-46.144023)"><g id="g1" transform="matrix(0.16536458,0,0,0.16536458,-90.228829,-46.617898)"><g id="g9" transform="translate(-176.39581,25.953979)"><path id="path2" d="M 0.00138962,4.405655e-4 -20.998611,3.0004406 l -21,6 -21,9.0000004 -18,11 -14,11 -7.999999,8 -12,13 -10,14 -9,17 -7,16.999999 -5,19 -3,24 v 20 l -4,-1 -87,-8 -17,-1 -2,1 -24,-3 -8,49 -20,120 -20,122 -25,152 -24,144.00001 -17,104 -11,65 1,5 18,3 19,6 19,10 13,8 15,11 12,12 7,8 3,1 28,-7 66,-15 94,-19 74.999999,-14 83.000001,-14 65,-10 73,-10 65,-8 84,-9 60,-5 111,-7 v -1 h -70 l -95,3 -79,4 -73,5 -85,7 -87,9 -89.000001,11 -66.999999,10 -84,14 -24,5 1,-12 8,-151 24,-458.00001 5,-96 1,-6 h 62 v 66 l -5,4 -9,10 -3,9 v 12 l 1,4 4,8 8,8 10,4 h 15 l 4,-1 9,-5 6,-7 4,-9 v -16 l -2,-6 -4,-6 -10,-9 v -66 h 265 v 67 h -2 l -7,6 -6,9 -3,10 v 7 l 2,7 6,10 8,6 11,4 h 9 l 4,-1 12,-6 5,-6 5,-10 v -15 l -1,-4 -5,-9 -6,-5 -5,-5 v -65 h 57 v -1 l -16,-2 -41,-3 v -56 l -2,-13 -5,-19 -8,-20.999999 -10,-18 -13,-17 -12,-12 -10,-9 -14,-10 -23,-12 -16,-6.0000004 -20,-5 -18,-2.0000000345 z M 7.0013897,26.000441 l 22.0000003,1 19,4 19,7 15,8 14,10 13,12 9,10 10,15 8,16.999999 6,19 3,17 v 48 l -2,4 -69,-6 -110.000001,-10 -81.999999,-7 h -5 v -27 l 3,-18 5,-17 9,-18.999999 9.999999,-15 9,-11 10,-10 15,-11 21,-11 18,-6 15.0000006,-3 z M -272.99861,173.00044 h 17 l 1,1 v 12 l -22,370 -8,130 -11,186.00001 -4,69 -1,5 -7,-6 -9,-8 -11,-7 -1,-5 13,-207.00001 3,-46 v -12 l -10,54 -31,159.00001 -7,36 -6,-1 -11,-4 2,-18 15,-103 13,-91.00001 21,-145 29,-204 21,-146 3,-18 z" transform="translate(596,535)" style="fill:#1260cc;fill-opacity:1"/><path id="path3" d="M 0.00139622,4.4353867e-4 -11.998604,1.0004435 l -22,4.0000001 -21,7.0000004 -23,12 V 7.0004436 H -174.9986 l -1,9.0000004 V 426.00045 l 1,1 h 95.999996 l 1,-95 v -46 l -1,-4 3,1 12,7 15,6 15,4 23,3 h 36 l 15,-2 17.000001,-4 20,-8 16,-9 13.000003,-10 10,-10 9,-11 9,-13.00001 10,-21 6,-18 4,-20 2,-21 -1,-22 -1,-7 -3,-16 -6,-18.999996 -6,-14 -9,-16 -11,-15 -12,-12 -14.000003,-11 -14,-8 -18,-8.0000004 -19.000001,-5 -23,-3.00000006133 z M -25.998604,94.000444 h 18.0000002 l 12,3 13.9999998,6.999996 10,9 7,9 7,15 2,8 v 18 l -4,15 -7,12 -11,12 -11,7 -8.9999998,4 -8,2 H -25.998604 l -16,-5 -10,-6 -10,-9 -7,-9 -5,-11 -3,-12 v -17 l 3,-12 7,-14 9,-10 10,-8 10,-4.999996 z" transform="translate(1705,1035)" style="fill:#1260cc;fill-opacity:1"/><path transform="translate(599,876)" d="m 0,0 h 28 l 22,2 18,3 17,4 15,5 24,11 13,7 -1,4 -12,29 -12,28 -7,15 -6,14 L 87,116 72,108 56,102 38,98 28,97 H 11 l -15,3 -10,5 -8,6 -5,7 -3,9 v 15 l 4,10 3,3 v 2 l 18,9 15,4 31,6 1,1 10,2 19,7 23,12 12,9 12,11 10,11 9,14 8,16 5,14 4,17 2,18 v 10 l -2,20 -5,21 -8,20 -9,15 -12,16 -13,13 -13,10 -13,8 -19,9 -23,7 -23,4 -9,1 h -40 l -27,-3 -29,-6 -16,-5 -20,-8 -19,-10 -11,-6 -16,-11 -13,-10 2,-4 14,-21 14,-20 13,-19 11,-16 4,2 14,10 19,11 15,7 18,6 21,4 10,1 h 22 l 16,-4 12,-6 8,-8 7,-14 2,-16 -3,-15 -6,-12 -8,-9 -13,-8 -16,-6 -37,-8 -19,-6 -16,-6 -17,-9 -13,-9 -10,-9 -2,-1 v -2 l -3,-1 -11,-14 -8,-15 -5,-16 -3,-19 v -22 l 3,-19 5,-17 8,-18 10,-15 8,-10 10,-10 18,-13 16,-9 17,-7 17,-5 21,-4 z" fill="#16499e" id="path4" style="fill:#1260cc;fill-opacity:1"/><path transform="translate(817,863)" d="m 0,0 h 84 l 5,1 v 157 2 l 1,5 1,49 8,-11 7,-7 12,-9 12,-6 18,-5 21,-3 h 22 l 14,1 7,1 18,4 13,4 16,8 13,9 10,9 11,15 8,17 5,15 3,17 1,16 v 180 l -1,2 H 200 l -1,-160 -2,-17 -4,-12 -6,-9 -1,-3 -14,-7 -13,-3 h -18 l -14,4 -10,6 -12,11 -9,14 -5,15 -1,12 -1,149 H -20 l -1,-3 V 142 L -20,1 Z" fill="#16499e" id="path5" style="fill:#1260cc;fill-opacity:1"/><path id="path6" d="M 0.00139391,4.4352083e-4 -14.998606,1.0004435 l -20,3 -21,6.0000005 -19.000001,8 -13,8 -13.000003,9 v 2 h -2 l -10,10 -9,10 -10,14 -7,13 -7,15.999996 -6,21 -3,20 v 32 l 4,23 6,19 7,15 11,18 10,13.00001 8,8 11.000003,9 12,9 17.000001,9 19,7 21,5 25.9999999,3 H 17.001394 l 11,-1 19,-3 19,-5 19,-8 15.999996,-9 13,-10 8,-7 6,-7 9,-11 11,-17.00001 8,-18 6,-20 4,-24 v -30 l -1,-8 -3,-16 -6,-19.999996 -8,-18 -9,-15 -10,-13 -14,-14 -12,-9 -17.999996,-11 -14,-6 -16,-5.0000004 -20,-4.0000001 -18,-1.99999997917 z M -4.9986061,96.000444 H 17.001394 l 13,3.999996 12,7 10,9 9,14 4,11 1,5 v 20 l -3,12 -6,12 -9,11 -13,9 -13,5 -10,2 H 0.00139391 l -13.99999991,-3 -16,-8 -10,-9 -9,-14 -4,-11 -2,-10 v -13 l 4,-16 7,-12 9,-10 9,-7 13,-5.999996 z" transform="translate(1318,1032)" style="display:inline;fill:#1260cc;fill-opacity:1"/><path transform="translate(1311,1405)" d="m 0,0 h 29 l 45,1 59,3 22,2 v 1 l -158,1 -51,2 -76,5 -67,6 -75,8 -68,9 -68,10 -66,11 -60,11 -94,19 -63,14 -55,13 -64,16 -100,27 -54,16 -42,13 -6,1 v -54 l 9,-3 60,-15 70,-16 82,-17 81,-15 64,-11 64,-10 62,-9 70,-9 88,-10 76,-7 50,-4 83,-5 76,-3 z" fill="#f3642c" id="path9"/><path transform="translate(596,535)" d="m 0,0 h 20 l 18,2 20,5 16,6 23,12 14,10 10,9 12,12 13,17 10,18 8,21 5,19 2,13 v 56 l 41,3 16,2 v 1 h -57 v 65 l 5,5 6,5 5,9 1,4 v 15 l -5,10 -5,6 -12,6 -4,1 h -9 l -11,-4 -8,-6 -6,-10 -2,-7 v -7 l 3,-10 6,-9 7,-6 h 2 v -67 h -265 v 66 l 10,9 4,6 2,6 v 16 l -4,9 -6,7 -9,5 -4,1 h -15 l -10,-4 -8,-8 -4,-8 -1,-4 v -12 l 3,-9 9,-10 5,-4 V 152 l 3,-24 5,-19 7,-17 9,-17 10,-14 12,-13 8,-8 14,-11 18,-11 21,-9 21,-6 z m 7,26 -21,2 -19,5 -16,7 -15,8 -16,13 -10,10 -11,15 -9,16 -7,17 -5,21 -1,8 v 27 l 30,2 112,10 77,7 48,4 1,-4 V 146 L 142,129 134,105 125,88 116,76 107,66 95,55 77,43 60,35 40,29 29,27 Z" fill="#f3642c" id="path10"/><path transform="translate(474,709)" d="m 0,0 40,3 101,9 77,7 47,4 2,1 v 7 L 164,32 H 1 L -1,30 V 1 Z" fill="#16499e" id="path19" style="fill:#1260cc;fill-opacity:1"/><path transform="translate(767,735)" d="M 0,0 41,3 57,5 V 6 H 38 L -1,5 Z" fill="#16499e" id="path24"/><text xml:space="preserve" style="font-size:640px;line-height:1.25;font-family:sans-serif;word-spacing:0px;fill:#f3642c;fill-opacity:1;stroke:none;stroke-width:1.6" x="1844.8357" y="1325.1097" id="text8"><tspan sodipodi:role="line" id="tspan8" style="font-style:normal;font-variant:normal;font-weight:normal;font-stretch:normal;font-size:640px;font-family:Elephant;-inkscape-font-specification:Elephant;fill:#f3642c;fill-opacity:1;stroke:none;stroke-width:1.6" x="1844.8357" y="1325.1097">it</tspan></text></g></g></g></svg>